<svg width="150" height="150" viewBox="0 0 150 150" fill="none" xmlns="http://www.w3.org/2000/svg">
<g clip-path="url(#clip0_2_3)">
<rect width="150" height="150" fill="white"/>
<path d="M63.84 62.28C63.84 65.3733 64.2133 67.6667 64.96 69.16H36.64C36 66.6 35.68 63.2933 35.68 59.24C35.68 46.3333 40 36.04 48.64 28.36C57.3867 20.5733 69.8667 16.68 86.08 16.68C112 16.68 124.96 27.1333 124.96 48.04C124.96 55.5067 123.147 62.4933 119.52 69C115.893 75.4 111.467 80.68 106.24 84.84C101.013 88.8933 95.7867 92.4667 90.56 95.56C85.3333 98.5467 80.8 101.107 76.96 103.24C73.12 105.267 71.04 106.813 70.72 107.88V108.04H113.44L108.96 133H25.28L27.36 121.16C28.5333 114.44 31.0933 108.467 35.04 103.24C38.9867 97.9067 43.4667 93.7467 48.48 90.76C53.4933 87.7733 58.7733 84.84 64.32 81.96C69.9733 78.9733 75.0933 76.36 79.68 74.12C84.2667 71.7733 88.0533 68.7867 91.04 65.16C94.1333 61.5333 95.68 57.48 95.68 53C95.68 45.32 91.36 41.48 82.72 41.48C76.7467 41.48 72.1067 43.4 68.8 47.24C65.4933 50.9733 63.84 55.9867 63.84 62.28Z" fill="#FF6B6B"/>
</g>
<defs>
<clipPath id="clip0_2_3">
<rect width="150" height="150" fill="white"/>
</clipPath>
</defs>
</svg>
